<svg width="20" height="14" viewBox="0 0 20 14" version="1.1" xmlns="http://www.w3.org/2000/svg" xmlns:xlink="http://www.w3.org/1999/xlink">
<title>noun_253946_cc copy</title>
<desc>Created using Figma</desc>
<g id="Canvas" transform="translate(-1850 -1337)">
<g id="noun_253946_cc copy">
<g id="Shape">
<use xlink:href="#path0_fill" transform="matrix(6.12323e-17 -1 1 6.12323e-17 1850.19 1350.87)"/>
</g>
</g>
</g>
<defs>
<path id="path0_fill" d="M 13.6333 12.7419C 13.5 12.6129 13.3 12.6129 13.1667 12.7419L 7.2 18.4839L 7.2 0.322581C 7.2 0.129032 7.03333 0 6.86667 0C 6.7 0 6.53333 0.16129 6.53333 0.322581L 6.53333 18.4839L 0.566667 12.7419C 0.433333 12.6129 0.233333 12.6129 0.1 12.7419C -0.0333333 12.871 -0.0333333 13.0645 0.1 13.1935L 6.63333 19.5161C 6.7 19.5806 6.8 19.6129 6.86667 19.6129C 6.96667 19.6129 7.03333 19.5806 7.1 19.5161L 13.6333 13.1935C 13.7667 13.0645 13.7667 12.871 13.6333 12.7419Z"/>
</defs>
</svg>
