<svg width="24" height="30" viewBox="0 0 24 30" version="1.1" xmlns="http://www.w3.org/2000/svg" xmlns:xlink="http://www.w3.org/1999/xlink">
<title>noun_253941_cc</title>
<desc>Created using Figma</desc>
<g id="Canvas" transform="translate(-2546 -53)">
<g id="noun_253941_cc">
<g id="Shape">
<use xlink:href="#path0_fill" transform="translate(2546.18 53.2206)"/>
</g>
</g>
</g>
<defs>
<path id="path0_fill" fill-rule="evenodd" d="M 19.4666 29.5588C 21.7778 29.5588 23.6445 27.9265 23.6445 25.8971L 23.6445 25.8529L 21.9111 6.30882C 21.9111 6.08823 21.689 5.91177 21.4666 5.91177L 17.4666 5.91177L 17.4666 5.60294C 17.4666 2.51471 14.9333 0 11.8223 0C 8.71118 0 6.17773 2.51471 6.17773 5.60294L 6.17773 5.91177L 2.17773 5.91177C 1.95557 5.91177 1.7334 6.08823 1.7334 6.30882L 0 25.8529L 0 25.8971C 0 27.9265 1.8667 29.5588 4.17773 29.5588L 19.4666 29.5588ZM 7.06665 5.60294C 7.06665 3 9.19995 0.882355 11.8223 0.882355C 14.4443 0.882355 16.5779 3 16.5779 5.60294L 16.5779 5.91177L 7.06665 5.91177L 7.06665 5.60294ZM 6.17773 6.79412L 2.57788 6.79412L 0.888916 25.9412C 0.888916 27.4412 2.35547 28.6765 4.17773 28.6765L 19.5112 28.6765C 21.3333 28.6765 22.8 27.4412 22.8 25.9412L 21.0667 6.79412L 17.4668 6.79412L 17.4668 9.70588C 17.4668 9.92647 17.2444 10.1471 17.0222 10.1471C 16.8 10.1471 16.5779 9.97059 16.5779 9.70588L 16.5779 6.79412L 7.06665 6.79412L 7.06665 9.70588C 7.06665 9.92647 6.84448 10.1471 6.62231 10.1471C 6.40015 10.1471 6.17773 9.97059 6.17773 9.70588L 6.17773 6.79412Z"/>
</defs>
</svg>
