<svg width="227" height="62" viewBox="0 0 227 62" version="1.1" xmlns="http://www.w3.org/2000/svg" xmlns:xlink="http://www.w3.org/1999/xlink">
<title>Group</title>
<desc>Created using Figma</desc>
<g id="Canvas" transform="translate(-1817 -49)">
<g id="Group">
<g id="Silkani Copy 3">
<use xlink:href="#path0_fill" transform="translate(1817.99 49.628)"/>
</g>
</g>
</g>
<defs>
<path id="path0_fill" fill-rule="evenodd" d="M 10.1449 31.768C 16.833 31.768 18.637 28.16 18.637 28.16C 20.4409 25.124 20.177 20.196 14.2369 16.28L 6.71301 11.352C -0.371094 6.776 4.20496 0.484001 8.95691 0.484001C 16.437 0.484001 17.6689 4.092 17.845 9.46L 18.3729 9.46L 18.3729 2.068C 18.3729 2.068 14.765 0 8.95691 0C 3.23694 0 1.08093 3.432 1.08093 3.432C -2.17505 8.888 2.66492 12.628 5.83301 14.828L 13.3569 19.8C 18.417 23.32 17.8009 31.284 10.1449 31.284C 2.84094 31.284 1.125 27.676 0.904907 20.944L 0.464966 20.944L 0.464966 29.392C 0.464966 29.392 3.677 31.768 10.1449 31.768ZM 43.5969 0.396L 34.533 0.396L 34.533 0.835999C 36.469 0.835999 37.3049 1.364 37.3049 4.092L 37.3049 26.972C 37.3049 29.964 36.4249 30.888 34.533 30.888L 34.533 31.372L 43.5969 31.372L 43.5969 30.888C 41.7489 30.888 40.869 29.964 40.869 26.972L 40.869 4.092C 40.869 1.364 41.705 0.835999 43.5969 0.835999L 43.5969 0.396ZM 77.7529 21.824L 77.313 21.824C 76.917 30.888 71.549 30.932 64.465 30.888L 62.881 30.888L 62.881 4.752C 62.881 1.584 63.8049 0.835999 65.697 0.835999L 65.697 0.396L 56.985 0.396L 56.985 0.835999C 58.877 0.835999 59.405 1.804 59.405 4.488L 59.405 26.356C 59.405 29.348 59.229 30.888 57.337 30.888L 57.337 31.372L 77.7529 31.372L 77.7529 21.824ZM 120.489 31.372L 120.489 30.888C 120.473 30.888 120.449 30.8886 120.417 30.8894C 119.837 30.9036 116.736 30.9798 114.901 28.644C 114.901 28.644 107.025 18.04 104.429 14.564C 113.933 2.376 116.045 0.835999 119.389 0.835999L 119.389 0.396L 108.477 0.396L 108.477 0.835999C 114.417 0.880001 110.545 5.544 106.761 9.944L 101.481 16.368C 101.481 16.368 104.077 19.8 106.585 23.408C 111.249 30.052 112.217 31.372 116.881 31.372L 120.489 31.372ZM 102.493 0.396L 93.033 0.396L 93.033 0.835999C 94.9249 0.835999 95.673 1.364 95.673 4.092L 95.673 27.104C 95.673 30.096 94.881 30.888 93.033 30.888L 93.033 31.372L 102.009 31.372L 102.009 30.888C 100.117 30.888 99.193 30.096 99.193 27.104L 99.193 4.092C 99.193 0.880001 100.557 0.835999 102.493 0.835999L 102.493 0.396ZM 150.421 21.12L 138.849 21.12L 144.437 5.676L 150.421 21.12ZM 160.189 31.372L 160.189 30.888C 158.913 30.8 158.033 30.624 156.625 27.104C 156.625 27.104 148.617 6.864 145.933 0.396L 145.625 0.396L 138.365 20.416C 134.801 30.404 133.701 30.888 131.765 30.888L 131.765 31.372L 141.093 31.372L 141.093 30.888C 135.436 30.975 136.837 26.9734 138.656 21.7776L 138.717 21.604L 150.597 21.604L 152.181 25.784C 153.765 29.48 153.281 30.888 151.433 30.888L 151.433 31.372L 160.189 31.372ZM 204.025 0.396L 191.837 0.396L 191.837 0.835999C 197.469 0.835999 197.469 5.104 197.469 11.22L 197.469 26.268L 177.801 0.396L 170.981 0.396L 170.981 0.835999C 171.061 0.842175 171.142 0.84705 171.224 0.851994C 172.312 0.9175 173.599 0.995026 176.217 4.268L 178.065 6.688L 178.065 20.46C 178.065 26.4 178.021 30.888 171.817 30.888L 171.817 31.372L 184.225 31.372L 184.225 30.888C 178.549 30.888 178.549 26.312 178.549 20.46L 178.549 7.26L 197.029 31.372L 197.953 31.372L 197.953 11.22L 197.953 10.8453C 197.95 4.93038 197.948 0.835999 204.025 0.835999L 204.025 0.396ZM 225.949 0.396L 216.885 0.396L 216.885 0.835999C 218.821 0.835999 219.657 1.364 219.657 4.092L 219.657 26.972C 219.657 29.964 218.777 30.888 216.885 30.888L 216.885 31.372L 225.949 31.372L 225.949 30.888C 224.101 30.888 223.221 29.964 223.221 26.972L 223.221 4.092C 223.221 1.364 224.057 0.835999 225.949 0.835999L 225.949 0.396ZM 122.323 55.372L 116.666 49.7151L 111.009 55.372L 116.666 61.0288L 122.323 55.372Z"/>
</defs>
</svg>
