<?xml version="1.0" encoding="UTF-8"?>
<svg width="226px" height="62px" viewBox="0 0 226 62" version="1.1" xmlns="http://www.w3.org/2000/svg" xmlns:xlink="http://www.w3.org/1999/xlink">
    <!-- Generator: Sketch 48.2 (47327) - http://www.bohemiancoding.com/sketch -->
    <title>Logo</title>
    <desc>Created with Sketch.</desc>
    <defs></defs>
    <g id="HEADER" stroke="none" stroke-width="1" fill="none" fill-rule="evenodd" transform="translate(-608.000000, -50.000000)">
        <g fill="#000000" id="Group">
            <g transform="translate(607.000000, 50.000000)">
                <path d="M19.628,28.788 C19.628,28.788 17.824,32.396 11.136,32.396 C4.668,32.396 1.456,30.02 1.456,30.02 L1.456,21.572 L1.896,21.572 C2.116,28.304 3.832,31.912 11.136,31.912 C18.792,31.912 19.408,23.948 14.348,20.428 L6.824,15.456 C3.656,13.256 -1.184,9.516 2.072,4.06 C2.072,4.06 4.228,0.628 9.948,0.628 C15.756,0.628 19.364,2.696 19.364,2.696 L19.364,10.088 L18.836,10.088 C18.66,4.72 17.428,1.112 9.948,1.112 C5.196,1.112 0.62,7.404 7.704,11.98 L15.228,16.908 C21.168,20.824 21.432,25.752 19.628,28.788 Z M35.524,1.024 L44.588,1.024 L44.588,1.464 C42.696,1.464 41.86,1.992 41.86,4.72 L41.86,27.6 C41.86,30.592 42.74,31.516 44.588,31.516 L44.588,32 L35.524,32 L35.524,31.516 C37.416,31.516 38.296,30.592 38.296,27.6 L38.296,4.72 C38.296,1.992 37.46,1.464 35.524,1.464 L35.524,1.024 Z M78.304,22.452 L78.744,22.452 L78.744,32 L58.328,32 L58.328,31.516 C60.22,31.516 60.396,29.976 60.396,26.984 L60.396,5.116 C60.396,2.432 59.868,1.464 57.976,1.464 L57.976,1.024 L66.688,1.024 L66.688,1.464 C64.796,1.464 63.872,2.212 63.872,5.38 L63.872,31.516 L65.456,31.516 C72.54,31.56 77.908,31.516 78.304,22.452 Z M121.48,31.516 L121.48,32 L117.872,32 C113.208,32 112.24,30.68 107.576,24.036 C105.068,20.428 102.472,16.996 102.472,16.996 L107.752,10.572 C111.536,6.172 115.408,1.508 109.468,1.464 L109.468,1.024 L120.38,1.024 L120.38,1.464 C117.036,1.464 114.924,3.004 105.42,15.192 C108.016,18.668 115.892,29.272 115.892,29.272 C117.828,31.736 121.172,31.516 121.48,31.516 Z M94.024,1.024 L103.484,1.024 L103.484,1.464 C101.548,1.464 100.184,1.508 100.184,4.72 L100.184,27.732 C100.184,30.724 101.108,31.516 103,31.516 L103,32 L94.024,32 L94.024,31.516 C95.872,31.516 96.664,30.724 96.664,27.732 L96.664,4.72 C96.664,1.992 95.916,1.464 94.024,1.464 L94.024,1.024 Z M139.84,21.748 L151.412,21.748 L145.428,6.304 L139.84,21.748 Z M161.18,31.516 L161.18,32 L152.424,32 L152.424,31.516 C154.272,31.516 154.756,30.108 153.172,26.412 L151.588,22.232 L139.708,22.232 C137.86,27.512 136.364,31.604 142.084,31.516 L142.084,32 L132.756,32 L132.756,31.516 C134.692,31.516 135.792,31.032 139.356,21.044 L146.616,1.024 L146.924,1.024 C149.608,7.492 157.616,27.732 157.616,27.732 C159.024,31.252 159.904,31.428 161.18,31.516 Z M192.828,1.024 L205.016,1.024 L205.016,1.464 C198.812,1.464 198.944,5.732 198.944,11.848 L198.944,32 L198.02,32 L179.54,7.888 L179.54,21.088 C179.54,26.94 179.54,31.516 185.216,31.516 L185.216,32 L172.808,32 L172.808,31.516 C179.012,31.516 179.056,27.028 179.056,21.088 L179.056,7.316 L177.208,4.896 C174.392,1.376 173.116,1.552 171.972,1.464 L171.972,1.024 L178.792,1.024 L198.46,26.896 L198.46,11.848 C198.46,5.732 198.46,1.464 192.828,1.464 L192.828,1.024 Z M217.876,1.024 L226.94,1.024 L226.94,1.464 C225.048,1.464 224.212,1.992 224.212,4.72 L224.212,27.6 C224.212,30.592 225.092,31.516 226.94,31.516 L226.94,32 L217.876,32 L217.876,31.516 C219.768,31.516 220.648,30.592 220.648,27.6 L220.648,4.72 C220.648,1.992 219.812,1.464 217.876,1.464 L217.876,1.024 Z M117.656854,50.3431458 L123.313708,56 L117.656854,61.6568542 L112,56 L117.656854,50.3431458 Z" id="Silkani-Copy-3"></path>
            </g>
        </g>
    </g>
</svg>