<svg width="41" height="27" viewBox="0 0 41 27" version="1.1" xmlns="http://www.w3.org/2000/svg" xmlns:xlink="http://www.w3.org/1999/xlink">
<title>noun_253946_cc copy 2</title>
<desc>Created using Figma</desc>
<g id="Canvas" transform="translate(-2477 -2656)">
<g id="noun_253946_cc copy 2">
<g id="Shape">
<use xlink:href="#path0_fill" transform="matrix(-6.12323e-17 -1 -1 6.12323e-17 2517.11 2682.74)"/>
</g>
</g>
</g>
<defs>
<path id="path0_fill" d="M 26.2929 25.4839C 26.0357 25.2258 25.65 25.2258 25.3929 25.4839L 13.8857 36.9677L 13.8857 0.645161C 13.8857 0.258065 13.5643 0 13.2429 0C 12.9214 0 12.6 0.322581 12.6 0.645161L 12.6 36.9677L 1.09286 25.4839C 0.835714 25.2258 0.45 25.2258 0.192857 25.4839C -0.0642857 25.7419 -0.0642857 26.129 0.192857 26.3871L 12.7929 39.0323C 12.9214 39.1613 13.1143 39.2258 13.2429 39.2258C 13.4357 39.2258 13.5643 39.1613 13.6929 39.0323L 26.2929 26.3871C 26.55 26.129 26.55 25.7419 26.2929 25.4839Z"/>
</defs>
</svg>
