<svg width="27" height="27" viewBox="0 0 27 27" version="1.1" xmlns="http://www.w3.org/2000/svg" xmlns:xlink="http://www.w3.org/1999/xlink">
<title>noun_253950_cc</title>
<desc>Created using Figma</desc>
<g id="Canvas" transform="translate(-2425 -54)">
<g id="noun_253950_cc">
<g id="Shape">
<use xlink:href="#path0_fill" transform="translate(2425.35 54.3484)"/>
</g>
</g>
</g>
<defs>
<path id="path0_fill" fill-rule="evenodd" d="M 18.7258 19.3355C 16.7227 21.1645 14.0662 22.2968 11.1484 22.2968C 5.00806 22.2968 0 17.3323 0 11.1484C 0 5.00806 5.00806 0 11.1484 0C 17.2888 0 22.2969 5.00806 22.2969 11.1484C 22.2969 14.0661 21.1646 16.7226 19.3354 18.7258L 26.1292 25.5194C 26.3032 25.6936 26.3032 25.9548 26.1292 26.129C 26.042 26.2161 25.9114 26.2597 25.8242 26.2597C 25.7371 26.2597 25.6064 26.2161 25.5193 26.129L 18.7258 19.3355ZM 21.4258 11.1484C 21.4258 5.4871 16.8096 0.870968 11.1482 0.870968C 5.48706 0.870968 0.87085 5.4871 0.87085 11.1484C 0.87085 16.8097 5.48706 21.4258 11.1482 21.4258C 16.8096 21.4258 21.4258 16.8097 21.4258 11.1484Z"/>
</defs>
</svg>
